<?xml version="1.0" encoding="utf-8"?><svg version="1.1" id="Layer_1" xmlns="http://www.w3.org/2000/svg" xmlns:xlink="http://www.w3.org/1999/xlink" x="0px" y="0px" viewBox="0 0 122.88 122.29" style="enable-background:new 0 0 122.88 122.29" xml:space="preserve"><style type="text/css">.st0{fill-rule:evenodd;clip-rule:evenodd;}</style><g><path class="st0" d="M18.86,59.43l-4.25-1.19c-0.26,2.11-0.4,4.26-0.4,6.44c0,6.93,1.37,13.53,3.86,19.53v0.01 c2.59,6.24,6.38,11.86,11.09,16.56l0.01,0.01c4.7,4.71,10.32,8.5,16.56,11.09h0.01c6,2.49,12.6,3.86,19.53,3.86 c6.93,0,13.53-1.37,19.53-3.86c6.23-2.58,11.85-6.38,16.57-11.1h0.01c4.71-4.7,8.5-10.32,11.09-16.56V84.2 c2.49-6,3.86-12.6,3.86-19.53c0-6.93-1.37-13.53-3.86-19.53c-2.58-6.23-6.38-11.85-11.1-16.57v-0.01 c-4.7-4.71-10.32-8.5-16.56-11.09h-0.01c-4.19-1.74-8.67-2.93-13.36-3.49v5.62C46.4,19.6,25.3,36.45,18.86,59.43L18.86,59.43z M60.83,6.79c2.26,0,4.1,1.83,4.1,4.1c0,2.26-1.83,4.1-4.1,4.1c-2.26,0-4.1-1.83-4.1-4.1C56.74,8.63,58.57,6.79,60.83,6.79 L60.83,6.79z M13.43,42.53c2.26,0,4.1,1.83,4.1,4.1c0,2.26-1.83,4.1-4.1,4.1c-2.26,0-4.1-1.83-4.1-4.1 C9.33,44.36,11.17,42.53,13.43,42.53L13.43,42.53z M8.24,56.44L0,54.13C8.99,22.12,38.19,0,71.44,0v7.39 c5.56,0.59,10.89,1.98,15.87,4.04l0,0c7.05,2.92,13.39,7.2,18.69,12.51l0.01-0.01c5.3,5.3,9.58,11.65,12.51,18.72 c2.82,6.8,4.37,14.24,4.37,22.02c0,7.79-1.56,15.24-4.37,22.04l0,0c-2.92,7.05-7.2,13.39-12.51,18.69l0.01,0.01 c-5.3,5.3-11.65,9.58-18.72,12.51c-6.8,2.82-14.24,4.37-22.02,4.37c-7.79,0-15.24-1.56-22.04-4.37l0,0 c-7.05-2.92-13.39-7.2-18.69-12.5l-0.01-0.01c-5.3-5.3-9.58-11.64-12.5-18.69l0,0c-2.82-6.8-4.37-14.24-4.37-22.04 C7.65,61.88,7.85,59.13,8.24,56.44L8.24,56.44z M65.27,29.18c4.81,0,9.39,0.96,13.58,2.69c4.34,1.8,8.25,4.44,11.52,7.71 c3.27,3.27,5.91,7.18,7.71,11.53c1.73,4.18,2.69,8.77,2.69,13.57c0,4.81-0.96,9.39-2.69,13.58c-1.8,4.34-4.44,8.25-7.71,11.52 c-3.27,3.27-7.18,5.91-11.53,7.71c-4.18,1.73-8.77,2.69-13.57,2.69c-4.81,0-9.39-0.96-13.58-2.69c-4.34-1.8-8.25-4.44-11.52-7.71 c-3.27-3.27-5.91-7.18-7.71-11.53c-1.73-4.18-2.69-8.77-2.69-13.57c0-4.81,0.96-9.39,2.69-13.58c1.8-4.34,4.44-8.25,7.71-11.52 c3.27-3.27,7.18-5.91,11.53-7.71C55.88,30.14,60.46,29.18,65.27,29.18L65.27,29.18z M57.41,58.28c0.12-0.16,0.24-0.31,0.36-0.46 c0.18-0.22,0.38-0.43,0.59-0.64c0.49-0.48,1.02-0.91,1.6-1.29c0.49-0.32,1.01-0.59,1.55-0.82l0-18.27 c-3.02,0.4-5.88,1.28-8.52,2.56c-2.84,1.38-5.41,3.22-7.61,5.42c-1.21,1.21-2.31,2.52-3.28,3.93c-0.88,1.28-1.66,2.63-2.33,4.05 L57.41,58.28L57.41,58.28z M68.54,60.82c-0.42-0.42-0.93-0.77-1.5-1c-0.54-0.22-1.14-0.35-1.78-0.35c-0.63,0-1.23,0.12-1.78,0.35 c-0.56,0.23-1.07,0.57-1.5,1l-0.01,0.01c-0.43,0.43-0.77,0.93-1,1.5c-0.22,0.54-0.35,1.14-0.35,1.78c0,0.63,0.12,1.23,0.35,1.78 c0.23,0.57,0.57,1.07,1,1.5L62,67.38c0.42,0.43,0.93,0.77,1.5,1c0.54,0.22,1.14,0.35,1.78,0.35c0.63,0,1.23-0.12,1.78-0.35 c0.57-0.23,1.07-0.57,1.5-1l0.01-0.01c0.42-0.42,0.77-0.93,1-1.5c0.22-0.54,0.35-1.14,0.35-1.78c0-0.63-0.13-1.23-0.35-1.78 C69.31,61.76,68.96,61.25,68.54,60.82L68.54,60.82z M68.85,54.99c0.58,0.23,1.14,0.52,1.67,0.86c0.61,0.39,1.16,0.83,1.66,1.33 c0.16,0.16,0.33,0.34,0.49,0.53c0.1,0.12,0.2,0.24,0.29,0.36l17.99-4.82c-0.67-1.51-1.48-2.96-2.4-4.32 c-1.01-1.49-2.16-2.88-3.43-4.15c-2.23-2.23-4.83-4.08-7.69-5.47c-2.66-1.28-5.56-2.16-8.6-2.55V54.99L68.85,54.99z M75,65.15 c-0.08,0.69-0.22,1.37-0.43,2.01c-0.22,0.66-0.51,1.3-0.86,1.89l10.42,16.51l0.36-0.33c0.22-0.2,0.44-0.42,0.68-0.66 c2.59-2.59,4.68-5.69,6.11-9.13c1.37-3.31,2.13-6.95,2.13-10.76c0-0.81-0.03-1.62-0.1-2.41c-0.06-0.66-0.14-1.32-0.24-1.96 L75,65.15L75,65.15z M67.87,73.54c-0.37,0.1-0.75,0.18-1.13,0.24c-0.48,0.07-0.97,0.11-1.47,0.11c-0.44,0-0.88-0.03-1.32-0.09 c-0.34-0.05-0.68-0.11-1.01-0.19L52.89,89.95c1.84,0.9,3.78,1.61,5.81,2.09c2.1,0.5,4.3,0.77,6.57,0.77c2.35,0,4.62-0.29,6.8-0.83 c2.11-0.52,4.12-1.28,6.02-2.25L67.87,73.54L67.87,73.54z M56.96,69.27c-0.36-0.58-0.67-1.2-0.9-1.85 c-0.23-0.64-0.4-1.31-0.49-2.01l-18.01-5.64c-0.13,0.74-0.23,1.48-0.3,2.22c-0.08,0.87-0.13,1.77-0.13,2.68 c0,3.81,0.76,7.45,2.13,10.76c1.42,3.44,3.51,6.54,6.11,9.13c0.28,0.28,0.57,0.55,0.84,0.81l0.54,0.49L56.96,69.27L56.96,69.27z"/></g></svg>